HIERARCHY
ROOT Hips
{
	OFFSET -7.666702 111.624649 -1.544528
	CHANNELS 6 Xposition Yposition Zposition Xrotation Yrotation Zrotation
	JOINT Chest
	{
		OFFSET 0.637789 13.502563 1.851560
		CHANNELS 3 Xrotation Yrotation Zrotation
		JOINT Chest2
		{
			OFFSET -0.221730 21.220276 2.952509
			CHANNELS 3 Xrotation Yrotation Zrotation
			JOINT Chest3
			{
				OFFSET 0.294033 14.880020 -1.148293
				CHANNELS 3 Xrotation Yrotation Zrotation
				JOINT Neck
				{
					OFFSET 0.177645 17.247070 1.059722
					CHANNELS 3 Xrotation Yrotation Zrotation
					JOINT Head
					{
						OFFSET 0.738442 10.453827 0.006914
						CHANNELS 3 Xrotation Yrotation Zrotation
						End Site
						{
							OFFSET 0.743916 10.453217 -0.065963
						}
					}
				}
				JOINT LeftCollar
				{
					OFFSET 4.312368 13.009979 3.734762
					CHANNELS 3 Xrotation Yrotation Zrotation
					JOINT LeftUpArm
					{
						OFFSET 14.983446 4.593384 -7.930732
						CHANNELS 3 Xrotation Yrotation Zrotation
						JOINT LeftLowArm
						{
							OFFSET 20.917681 24.754303 9.455272
							CHANNELS 3 Xrotation Yrotation Zrotation
							JOINT LeftHand
							{
								OFFSET 18.290833 23.328506 4.708778
								CHANNELS 3 Xrotation Yrotation Zrotation
								End Site
								{
									OFFSET 3.997581 5.098572 1.029131
								}
							}
						}
					}
				}
				JOINT RightCollar
				{
					OFFSET -4.103271 13.102158 3.647642
					CHANNELS 3 Xrotation Yrotation Zrotation
					JOINT RightUpArm
					{
						OFFSET -15.600416 -2.750427 -7.586730
						CHANNELS 3 Xrotation Yrotation Zrotation
						JOINT RightLowArm
						{
							OFFSET -27.915874 -18.984329 -0.183542
							CHANNELS 3 Xrotation Yrotation Zrotation
							JOINT RightHand
							{
								OFFSET -25.418259 -15.388214 4.250831
								CHANNELS 3 Xrotation Yrotation Zrotation
								End Site
								{
									OFFSET -5.555420 -3.363235 0.929064
								}
							}
						}
					}
				}
			}
		}
	}
	JOINT LeftUpLeg
	{
		OFFSET 9.817948 -0.720772 1.872837
		CHANNELS 3 Xrotation Yrotation Zrotation
		JOINT LeftLowLeg
		{
			OFFSET -6.670809 -45.347237 11.963182
			CHANNELS 3 Xrotation Yrotation Zrotation
			JOINT LeftFoot
			{
				OFFSET -7.581050 -43.473961 -7.287662
				CHANNELS 3 Xrotation Yrotation Zrotation
				JOINT LeftToe
				{
					OFFSET -1.777716 -20.191986 12.193560
					CHANNELS 3 Xrotation Yrotation Zrotation
					End Site
					{
						OFFSET 1.278472 -8.138134 22.174200
					}
				}
			}
		}
	}
	JOINT RightUpLeg
	{
		OFFSET -9.817961 0.720573 -1.872865
		CHANNELS 3 Xrotation Yrotation Zrotation
		JOINT RightLowLeg
		{
			OFFSET -2.017374 -46.388885 -9.381535
			CHANNELS 3 Xrotation Yrotation Zrotation
			JOINT RightFoot
			{
				OFFSET 9.792443 -37.799706 -21.814449
				CHANNELS 3 Xrotation Yrotation Zrotation
				JOINT RightToe
				{
					OFFSET 5.111049 -22.460302 5.382252
					CHANNELS 3 Xrotation Yrotation Zrotation
					End Site
					{
						OFFSET -2.118615 -15.479062 17.761368
					}
				}
			}
		}
	}
}
MOTION
Frames: 17
Frame Time: 0.033333
-0.161348 106.130417 -1.111723 -6.235526 10.771651 4.197580 -5.791171 -1.629544 -4.629562 7.720198 1.661390 0.890818 -8.363218 -9.588658 -1.186045 12.711008 3.599085 3.561421 -0.000000 0.000000 0.000000 7.596253 2.406981 -19.859480 -5.641644 12.007973 -30.113184 5.735958 -4.433593 -1.810534 0.000001 0.000000 0.000002 7.134201 -5.010700 -8.516793 -0.495269 4.631655 -26.235983 11.808481 -2.214169 2.668958 -0.000001 0.000000 0.000001 21.190662 -0.835947 12.951593 -15.595537 6.022201 0.714407 -22.969679 -13.992584 -7.569128 0.000001 -0.000001 -0.000001 -1.612447 4.627881 -6.359026 -11.763718 4.077979 -9.688144 -14.088145 2.219787 -17.925558 0.000004 0.000000 -0.000000 
-0.410630 105.715233 -1.114626 0.149660 8.926384 3.650921 -0.309154 -0.417578 -0.517014 1.152866 1.574378 -0.635052 1.165678 -6.638470 -2.059098 4.903544 -1.024205 5.354021 0.000000 0.000001 0.000000 6.316759 -3.179296 -42.605470 16.030241 -1.234149 -86.350093 33.377833 -7.578508 3.109753 -0.000000 0.000001 0.000004 5.842584 -0.712624 16.953491 0.998139 17.411918 29.019732 -0.094467 21.699323 3.289967 0.000000 0.000002 -0.000004 16.959075 0.799071 10.141409 -6.715521 3.548527 1.311918 -26.575679 -8.422815 -8.426250 0.000001 -0.000000 -0.000001 -7.238451 1.752702 -1.154844 -3.665403 1.009587 -10.169750 -14.721940 -5.128296 -18.485716 -0.000001 -0.000001 0.000002 
-0.438157 105.705078 -1.109204 0.299211 9.120653 3.748766 -0.634876 -0.380217 -0.594463 1.908850 1.518864 -0.530120 0.558446 -6.798384 -2.253844 4.936620 -1.158506 5.432754 0.000000 -0.000000 -0.000001 6.263067 -3.243874 -42.514728 15.928942 -1.025784 -86.384374 33.482899 -7.888186 2.768646 0.000001 0.000000 0.000002 5.755441 -0.965040 16.888567 0.693286 17.534532 29.118859 0.177079 21.135209 3.225604 -0.000006 -0.000001 -0.000006 16.825295 0.847554 10.071616 -6.747046 3.595622 1.406195 -26.800025 -8.562577 -8.595032 -0.000004 -0.000001 0.000000 -7.164609 1.685241 -1.191571 -3.790209 0.938359 -10.203021 -15.000514 -4.920176 -18.339768 0.000002 -0.000001 0.000000 
-0.471041 105.700287 -1.105079 -0.042158 9.086766 3.722874 -0.157406 -0.415551 -0.490675 1.347589 1.601942 -0.692067 0.961813 -6.824413 -2.132311 5.169486 -1.162904 5.367638 -0.000001 0.000000 -0.000000 6.194230 -3.145925 -42.754215 15.844109 -1.114557 -86.120926 33.347569 -7.809709 2.745308 0.000001 0.000000 0.000006 5.747343 -0.743188 17.010410 0.685231 17.540366 28.939143 0.444835 20.925009 2.944450 -0.000004 0.000000 0.000001 17.204564 0.899693 10.194876 -6.829682 3.674206 1.482271 -27.187710 -8.591501 -8.660441 -0.000000 -0.000000 -0.000002 -6.833688 1.602032 -1.037122 -3.807116 0.890619 -10.273731 -14.993264 -4.790532 -18.215831 -0.000001 0.000001 -0.000002 
-0.512765 105.696243 -1.096835 -0.050338 9.633114 3.795239 -0.420953 -0.383905 -0.580041 1.653320 1.561314 -0.665603 0.711086 -6.972465 -2.166140 5.328022 -1.374616 5.449254 -0.000000 0.000000 0.000000 6.187362 -3.316637 -42.753115 15.764070 -0.919290 -86.259695 33.154011 -7.773712 2.492627 0.000002 -0.000001 0.000004 5.721639 -0.585658 17.186156 0.597594 17.540573 28.661079 0.787732 20.558997 2.485857 -0.000001 0.000003 -0.000001 16.834777 0.931287 10.208244 -6.229217 3.384161 1.637883 -27.744112 -8.686737 -9.007094 -0.000000 -0.000001 -0.000001 -6.717663 1.531945 -0.889360 -3.977251 0.932230 -10.271888 -15.141440 -5.030721 -18.833039 0.000002 0.000000 -0.000000 
-0.568047 105.692101 -1.095743 -0.321725 9.437976 3.816537 -0.143652 -0.405889 -0.581178 2.098957 1.594123 -0.676363 0.161783 -6.756500 -2.181108 5.622765 -1.450008 5.493776 -0.000001 -0.000000 0.000000 6.363737 -3.497653 -43.038511 15.712297 -1.190725 -85.897299 33.156265 -7.797504 2.640582 0.000001 -0.000000 0.000007 5.817528 -0.684738 17.537177 0.580872 17.849101 28.155510 1.256518 20.045902 1.930798 0.000001 -0.000001 0.000003 16.752111 0.991265 10.215155 -5.916031 3.146748 1.738369 -27.997272 -8.544597 -8.963746 -0.000002 -0.000000 -0.000001 -6.557636 1.440530 -0.822358 -3.792099 0.962827 -10.231747 -15.484298 -4.784338 -18.789734 -0.000001 -0.000001 0.000000 
-0.629779 105.684692 -1.093832 -0.708973 9.534305 3.884959 0.362931 -0.412848 -0.595098 2.251394 1.603840 -0.693205 0.024594 -7.055553 -2.180923 5.205345 -1.420542 5.427829 0.000001 0.000000 0.000000 6.239201 -3.365060 -43.102967 15.447035 -1.212663 -85.845164 33.013637 -8.214998 2.499595 0.000004 -0.000001 0.000002 5.792654 0.048398 17.503589 0.323962 17.790414 28.098727 1.243805 19.499698 1.374856 0.000004 0.000001 -0.000004 16.670091 1.013154 10.224591 -5.159609 2.842996 1.882342 -28.175135 -8.660299 -9.203204 -0.000000 -0.000001 -0.000001 -6.368735 1.365330 -0.664439 -3.446531 1.131568 -10.274704 -15.597758 -4.932918 -19.120669 -0.000002 0.000000 0.000000 
-0.700189 105.681351 -1.093603 -0.856048 8.822331 4.007155 0.444631 -0.387663 -0.755983 2.116270 1.719308 -0.940674 0.151638 -6.364791 -1.970037 5.347465 -1.638084 5.432561 -0.000000 0.000000 -0.000000 6.131337 -3.618377 -42.977384 15.232862 -0.754795 -86.148910 32.701204 -8.535644 2.255719 0.000003 -0.000000 0.000002 5.465447 -0.946030 17.443060 0.234537 17.374154 28.010143 1.510935 18.259983 1.664470 0.000001 -0.000001 -0.000000 16.871739 1.034657 10.177054 -5.311152 2.932608 1.683710 -28.028556 -8.221584 -8.679949 -0.000000 -0.000001 -0.000001 -6.007115 1.277783 -0.753296 -3.495547 1.091448 -10.476479 -16.213954 -4.369339 -18.619582 0.000002 -0.000001 -0.000001 
-0.782644 105.684555 -1.088803 -0.308586 8.652440 3.986331 -0.589776 -0.296215 -0.913763 3.322454 1.687823 -0.868188 -0.670791 -6.736411 -2.022070 5.801619 -1.582339 5.272617 0.000001 0.000000 0.000000 6.068981 -3.307647 -42.818408 15.143030 0.238465 -86.751032 33.025559 -9.068285 2.439589 0.000004 -0.000002 0.000002 5.387881 -0.536465 17.188116 0.104339 17.035257 27.916376 1.595913 17.736243 0.848545 -0.000002 -0.000001 -0.000001 15.933419 1.086965 10.157775 -4.684812 2.697007 1.780667 -27.794096 -8.404747 -8.806860 -0.000002 0.000000 -0.000001 -6.080470 1.171541 -0.665385 -3.786612 0.924729 -10.577741 -16.643002 -3.862586 -18.367830 -0.000003 0.000000 -0.000000 
-0.862140 105.690239 -1.084467 -0.367741 8.208748 3.983564 -0.390255 -0.305073 -0.907552 2.808384 1.710657 -0.988427 -0.127083 -6.508200 -1.869936 5.863241 -1.634923 5.245520 -0.000001 0.000000 0.000000 5.929146 -2.608796 -42.851043 14.949734 -0.191047 -86.738307 32.607081 -8.874976 2.104350 0.000004 -0.000000 -0.000002 5.331583 -0.539521 16.915030 -0.176892 17.201819 27.869376 1.951298 17.331948 -0.219938 0.000001 0.000001 0.000001 15.512164 1.099947 10.130765 -3.786962 2.492380 1.909234 -27.881363 -8.385052 -8.831598 -0.000002 -0.000000 -0.000002 -6.233473 1.156834 -0.689683 -3.377833 0.882882 -10.541475 -17.277366 -3.450023 -18.104827 -0.000001 -0.000002 0.000001 
-0.948047 105.713409 -1.084336 -1.076019 7.823235 4.021959 0.001353 -0.335186 -0.794074 4.068289 1.668967 -0.854907 -1.199312 -6.753350 -2.116846 6.078064 -1.484376 4.955116 -0.000000 0.000000 0.000000 5.623298 -1.350986 -43.189530 14.570904 0.114346 -86.473651 32.516068 -9.819110 1.501918 0.000001 0.000000 0.000002 5.160708 -0.295024 16.839324 -0.161701 16.796094 27.383376 1.364555 17.042017 -1.383267 -0.000004 -0.000001 -0.000001 16.039656 1.133982 10.196962 -3.868102 2.359134 1.934764 -27.310493 -8.400173 -8.767864 -0.000004 -0.000000 -0.000002 -5.905992 1.077317 -0.737632 -3.128903 0.901838 -10.434569 -17.294234 -3.331908 -17.925159 0.000002 0.000003 -0.000001 
-1.048072 105.747879 -1.078799 -1.110893 7.653848 3.866658 -0.469899 -0.282241 -0.813966 5.349946 1.604914 -0.607674 -2.011733 -6.822081 -2.281906 6.349311 -1.430449 5.076223 -0.000001 0.000001 0.000000 5.292194 -0.921083 -43.230624 14.350868 0.754734 -86.828971 31.540963 -10.432250 1.224375 -0.000000 0.000001 0.000004 4.880013 -0.239831 16.556971 -0.621190 16.795748 26.952104 0.287544 17.125062 -3.068369 -0.000002 -0.000002 -0.000002 15.937548 1.006905 10.498040 -4.136786 2.054270 1.797454 -26.237260 -7.954386 -8.165021 -0.000000 -0.000001 0.000001 -6.087260 1.157866 -0.391907 -3.531167 1.410522 -10.409958 -17.111412 -3.728843 -17.779375 -0.000000 -0.000000 0.000001 
-1.139116 105.790627 -1.081217 0.076076 8.040033 3.763979 -1.559224 -0.227630 -0.677927 5.625536 1.477747 -0.381246 -2.016817 -7.353646 -2.614325 5.761792 -1.421871 5.001771 -0.000000 0.000000 0.000000 5.142942 -2.107479 -43.205680 14.142371 1.052080 -86.982541 30.904536 -10.788355 1.644618 0.000001 0.000000 0.000006 4.824749 1.675163 16.222331 -0.890569 16.759855 26.458261 -0.090464 16.819592 -5.212281 -0.000001 0.000002 -0.000004 14.186043 0.863327 10.470005 -3.934174 1.812285 1.841248 -25.831328 -7.891052 -8.079623 -0.000000 0.000000 -0.000001 -6.959926 1.283033 -0.317285 -4.678758 1.474585 -10.514445 -16.006244 -4.290350 -17.765716 -0.000003 -0.000002 0.000001 
-1.232238 105.837303 -1.068630 0.676262 7.824890 3.603016 -2.188636 -0.193757 -0.525248 5.991650 1.461204 -0.393193 -2.002013 -6.500086 -2.625503 5.873222 -1.942101 5.480016 -0.000000 0.000000 -0.000000 5.150822 -3.701394 -42.879364 14.035826 0.854735 -87.261971 30.717867 -10.732545 2.210431 0.000003 -0.000000 -0.000001 4.530195 0.685958 15.773113 -1.793365 17.861406 25.895822 -0.026008 16.989317 -7.321351 -0.000005 0.000001 -0.000001 13.285164 0.848200 10.547517 -3.773466 1.686229 1.799161 -25.713873 -7.608448 -7.928862 -0.000000 0.000000 -0.000002 -7.189268 1.278265 -0.155425 -5.566242 1.629938 -10.647522 -15.382653 -4.599428 -17.475042 -0.000003 -0.000002 -0.000000 
-1.329355 105.901421 -1.054479 -0.783862 7.678479 3.493516 -0.216120 -0.402138 -0.229157 5.041729 1.449865 -0.400768 -2.094230 -6.711492 -2.731253 6.026947 -1.932970 5.339889 -0.000001 0.000000 0.000000 5.106560 -3.564553 -42.557993 13.952694 0.903396 -87.587935 29.937542 -10.717570 2.024604 0.000001 0.000002 0.000006 4.427901 0.511359 15.276553 -2.370318 18.696729 25.309536 -0.344595 17.070439 -9.674585 -0.000003 -0.000002 -0.000002 14.349857 0.803681 10.866873 -3.287682 1.612540 1.928242 -25.844995 -7.669829 -7.903413 -0.000002 -0.000001 -0.000001 -6.125305 1.177829 0.195129 -5.437598 1.560607 -10.746486 -15.528314 -4.644129 -17.614640 0.000001 0.000000 -0.000001 
-1.424203 105.965836 -1.038356 -1.765469 7.289583 3.493841 1.094313 -0.475687 -0.157811 4.854296 1.459349 -0.537634 -2.377321 -6.971834 -2.610960 4.932391 -1.781140 4.989280 0.000000 0.000001 -0.000001 4.505571 -1.903645 -42.855376 13.566135 1.802059 -87.644291 29.485845 -11.653412 1.133534 0.000003 0.000003 0.000006 4.212835 1.892445 14.912866 -2.764804 18.452246 24.716433 -1.384319 17.134814 -11.465800 -0.000002 0.000001 -0.000003 15.077484 0.777380 10.961355 -3.221601 1.406779 1.819664 -26.051448 -7.128275 -7.491987 -0.000004 0.000000 -0.000001 -5.634185 1.179959 0.325638 -4.683573 1.913021 -10.566560 -15.702291 -4.880977 -17.744625 0.000003 0.000002 -0.000002 
-1.515740 106.031784 -1.016490 -1.828304 7.101918 3.515417 1.672201 -0.534486 -0.061258 4.745563 1.601745 -0.783547 -2.566086 -6.781324 -2.409609 4.836548 -1.722072 4.968194 0.000000 -0.000000 0.000000 4.551563 -1.403374 -42.775849 13.733756 1.656461 -87.813823 29.428184 -11.675608 1.266048 0.000004 0.000001 0.000006 4.505975 2.812621 14.377369 -3.782571 20.610226 23.494476 -0.706963 16.140811 -14.728014 -0.000000 -0.000002 -0.000004 15.263477 0.693728 10.916328 -3.595718 1.189601 1.816350 -24.812050 -6.765983 -7.182515 -0.000002 -0.000000 -0.000002 -5.855424 1.302958 0.379842 -4.298203 2.401935 -10.300680 -15.702188 -5.369236 -18.013941 0.000001 -0.000001 0.000000 
